<svg width="12" height="13" viewBox="0 0 12 13" fill="none" xmlns="http://www.w3.org/2000/svg">
<g id="Union">
<path d="M5.88774 3.36731L3.75 5.46861H4.8129V7.88687C4.8129 8.68514 5.03185 9.25644 5.46975 9.60079C5.90764 9.94514 6.5844 10.1173 7.5 10.1173V9.13122C7.26911 9.13122 7.07404 9.11948 6.91481 9.09601C6.76353 9.07253 6.60032 9.02557 6.42516 8.95514C6.25 8.87687 6.11465 8.74774 6.01911 8.56774C5.93153 8.38774 5.88774 8.16079 5.88774 7.88687V5.46861H7.5V4.48253H5.88774V3.36731Z" fill="white"/>
<path fill-rule="evenodd" clip-rule="evenodd" d="M12 6.74231C12 10.056 9.31371 12.7423 6 12.7423C2.68629 12.7423 0 10.056 0 6.74231C0 3.4286 2.68629 0.74231 6 0.74231C9.31371 0.74231 12 3.4286 12 6.74231ZM11.25 6.74231C11.25 9.6418 8.8995 11.9923 6 11.9923C3.10051 11.9923 0.75 9.6418 0.75 6.74231C0.75 3.84281 3.10051 1.49231 6 1.49231C8.8995 1.49231 11.25 3.84281 11.25 6.74231Z" fill="white"/>
</g>
</svg>
